<?xml version="1.0" encoding="UTF-8"?>
<!DOCTYPE svg PUBLIC "-//W3C//DTD SVG 1.1//EN" "http://www.w3.org/Graphics/SVG/1.1/DTD/svg11.dtd">
<svg fill-rule="evenodd" height="90.0396828384" image-rendering="optimizeQuality" shape-rendering="geometricPrecision" text-rendering="geometricPrecision" viewBox="0 0 2.90175 2.90175" width="90.0396828384" xml:space="preserve" xmlns="http://www.w3.org/2000/svg"><defs>
  
 </defs>
 
 <g id="Diagram">
  
  
   <path d="m.76572.30896h1.3703c.25159,0 .45677.20518.45677.45677v1.3703c0,.25159-.20518.45677-.45677.45677h-1.3703c-.25159,0-.45677-.20518-.45677-.45677v-1.3703c0-.25159.20518-.45677.45677-.45677z" fill="#4d4948" stroke="#4d4948" stroke-width=".04028"></path>
   
    <path d="m.30896,1.90764h-.22838" fill="none" stroke="#e77817" stroke-linecap="round" stroke-width=".16114"></path>
    <path d="m.30896,1.67907h-.22838" fill="none" stroke="#e77817" stroke-linecap="round" stroke-width=".16114"></path>
    <path d="m.30896,1.22249h-.22838" fill="none" stroke="#e77817" stroke-linecap="round" stroke-width=".16114"></path>
    <path d="m.30896,1.45069h-.22838" fill="none" stroke="#e77817" stroke-linecap="round" stroke-width=".16114"></path>
    <path d="m.30896.99392h-.22838" fill="none" stroke="#e77817" stroke-linecap="round" stroke-width=".16114"></path>
    <path d="m.30896.76554h-.22838" fill="none" stroke="#e77817" stroke-linecap="round" stroke-width=".16114"></path>
    <path d="m.30896,2.13593h-.22838" fill="none" stroke="#e77817" stroke-linecap="round" stroke-width=".16114"></path>
   
   
    <path d="m2.82117,1.90764h-.22838" fill="none" stroke="#e77817" stroke-linecap="round" stroke-width=".16114"></path>
    <path d="m2.82117,1.67907h-.22838" fill="none" stroke="#e77817" stroke-linecap="round" stroke-width=".16114"></path>
    <path d="m2.82117,1.22249h-.22838" fill="none" stroke="#e77817" stroke-linecap="round" stroke-width=".16114"></path>
    <path d="m2.82117,1.45069h-.22838" fill="none" stroke="#e77817" stroke-linecap="round" stroke-width=".16114"></path>
    <path d="m2.82117.99392h-.22838" fill="none" stroke="#e77817" stroke-linecap="round" stroke-width=".16114"></path>
    <path d="m2.82117.76554h-.22838" fill="none" stroke="#e77817" stroke-linecap="round" stroke-width=".16114"></path>
    <path d="m2.82117,2.13593h-.22838" fill="none" stroke="#e77817" stroke-linecap="round" stroke-width=".16114"></path>
   
   
    <path d="m.99411,2.82117v-.22838" fill="none" stroke="#e77817" stroke-linecap="round" stroke-width=".16114"></path>
    <path d="m1.22267,2.82117v-.22838" fill="none" stroke="#e77817" stroke-linecap="round" stroke-width=".16114"></path>
    <path d="m1.67926,2.82117v-.22838" fill="none" stroke="#e77817" stroke-linecap="round" stroke-width=".16114"></path>
    <path d="m1.45106,2.82117v-.22838" fill="none" stroke="#e77817" stroke-linecap="round" stroke-width=".16114"></path>
    <path d="m1.90782,2.82117v-.22838" fill="none" stroke="#e77817" stroke-linecap="round" stroke-width=".16114"></path>
    <path d="m2.13621,2.82117v-.22838" fill="none" stroke="#e77817" stroke-linecap="round" stroke-width=".16114"></path>
    <path d="m.76582,2.82117v-.22838" fill="none" stroke="#e77817" stroke-linecap="round" stroke-width=".16114"></path>
   
   
    <path d="m.99401.30896v-.22838" fill="none" stroke="#e77817" stroke-linecap="round" stroke-width=".16114"></path>
    <path d="m1.22258.30896v-.22838" fill="none" stroke="#e77817" stroke-linecap="round" stroke-width=".16114"></path>
    <path d="m1.67917.30896v-.22838" fill="none" stroke="#e77817" stroke-linecap="round" stroke-width=".16114"></path>
    <path d="m1.45096.30896v-.22838" fill="none" stroke="#e77817" stroke-linecap="round" stroke-width=".16114"></path>
    <path d="m1.90773.30896v-.22838" fill="none" stroke="#e77817" stroke-linecap="round" stroke-width=".16114"></path>
    <path d="m2.13611.30896v-.22838" fill="none" stroke="#e77817" stroke-linecap="round" stroke-width=".16114"></path>
    <path d="m.76572.30896v-.22838" fill="none" stroke="#e77817" stroke-linecap="round" stroke-width=".16114"></path>
   
   <path d="m.90275.62869h1.09624c.15095,0 .27406.12311.27406.27406v1.09624c0,.15095-.12311.27406-.27406.27406h-1.09624c-.15095,0-.27406-.12311-.27406-.27406v-1.09624c0-.15095.12311-.27406.27406-.27406z" fill="#75c5f0" stroke="#007cc3" stroke-width=".08056"></path>
   <path d="m1.12684.97163c0,.03257-.00256.06189-.00781.08811s-.01389.04855-.02572.06701-.02727.03266-.04627.04253-.04221.01475-.06975.01475-.05088-.00475-.06915-.0143-.03275-.02334-.04339-.04125-.01827-.03988-.02256-.06577-.00644-.05518-.00644-.08797 .00269-.06166.00804-.08797 .01398-.04865.02581-.06714 .02727-.03266.04627-.04253 .04211-.01471.06943-.01471 .05102.0047.06938.01425 .03284.02334.04348.04129 .01818.03983.02234.06573 .00635.05522.00635.08797zm-.08336.00407c0-.01932-.00055-.03631-.0016-.05111s-.00269-.02763-.00484-.03855l-.00827-.02773c-.00324-.00754-.00722-.01357-.01169-.01804l-.0158-.00968-.01955-.00279c-.01238,0-.02256.00301-.0306.00891l-.01923.02695c-.00475.01192-.00808.02686-.00991.04472s-.00288.03855-.00288.0623c0,.029.00119.05294.00352.07185s.00594.03417.01087.04536 .01128.01909.019.02361 .01708.00676.02805.00676l.0217-.00397 .01653-.01169 .01174-.01987 .00772-.02773c.00206-.01041.00333-.02234.00407-.03554s.00119-.02786.00119-.04376zm.39812.16964c0,.00589-.00032.01083-.00096.01494l-.00269.00977-.00397.00516-.00502.0016h-.22464l-.00475-.0016-.00397-.00516-.00265-.00977c-.00064-.00411-.00096-.00904-.00096-.01494s.00032-.01119.00082-.01526l.00247-.00987 .00397-.00562 .00507-.00169h.07582v-.26502l-.0655.03618-.01183.00429-.00722-.00192c-.00183-.00174-.00297-.00484-.00361-.00923s-.00087-.01064-.00087-.01859 9.13533e-005-.00914.00032-.01247 .00064-.00603.00151-.00827l.00343-.00571 .00603-.0047 .08752-.05664 .00388-.00201 .00612-.00128 .01-.00069 .0159-9.13533e-005 .01932.00041 .01119.00164 .00502.00288 .00119.00475v.33645h.06641l.00525.00169 .00407.00562 .00247.00987c.00055.00407.00087.00914.00087.01526zm.3386-.17371c0,.03257-.00256.06189-.00781.08811s-.01389.04855-.02572.06701-.02727.03266-.04627.04253-.04221.01475-.06975.01475-.05088-.00475-.06915-.0143-.03275-.02334-.04339-.04125-.01827-.03988-.02256-.06577-.00644-.05518-.00644-.08797 .00269-.06166.00804-.08797 .01398-.04865.02581-.06714 .02727-.03266.04627-.04253 .04211-.01471.06943-.01471 .05102.0047.06938.01425 .03284.02334.04348.04129 .01818.03983.02234.06573 .00635.05522.00635.08797zm-.08336.00407c0-.01932-.00055-.03631-.0016-.05111s-.00269-.02763-.00484-.03855l-.00827-.02773c-.00324-.00754-.00722-.01357-.01169-.01804l-.0158-.00968-.01955-.00279c-.01238,0-.02256.00301-.0306.00891l-.01923.02695c-.00475.01192-.00808.02686-.00991.04472s-.00288.03855-.00288.0623c0,.029.00119.05294.00352.07185s.00594.03417.01087.04536 .01128.01909.019.02361 .01708.00676.02805.00676l.0217-.00397 .01653-.01169 .01174-.01987 .00772-.02773c.00206-.01041.00333-.02234.00407-.03554s.00119-.02786.00119-.04376zm.39812.16964c0,.00589-.00032.01083-.00096.01494l-.00269.00977-.00397.00516-.00502.0016h-.22464l-.00475-.0016-.00397-.00516-.00265-.00977c-.00064-.00411-.00096-.00904-.00096-.01494s.00032-.01119.00082-.01526l.00247-.00987 .00397-.00562 .00507-.00169h.07582v-.26502l-.0655.03618-.01183.00429-.00722-.00192c-.00183-.00174-.00297-.00484-.00361-.00923s-.00087-.01064-.00087-.01859 9.13533e-005-.00914.00032-.01247 .00064-.00603.00151-.00827l.00343-.00571 .00603-.0047 .08752-.05664 .00388-.00201 .00612-.00128 .01-.00069 .0159-9.13533e-005 .01932.00041 .01119.00164 .00502.00288 .00119.00475v.33645h.06641l.00525.00169 .00407.00562 .00247.00987c.00055.00407.00087.00914.00087.01526zm-.98004.47207c0,.00589-.00032.01083-.00096.01494l-.00269.00977-.00397.00516-.00502.0016h-.22464l-.00475-.0016-.00397-.00516-.00265-.00977c-.00064-.00411-.00096-.00904-.00096-.01494s.00032-.01119.00082-.01526l.00247-.00987 .00397-.00562 .00507-.00169h.07582v-.26502l-.0655.03618-.01183.00429-.00722-.00192c-.00183-.00174-.00297-.00484-.00361-.00923s-.00087-.01064-.00087-.01859 9.13533e-005-.00914.00032-.01247 .00064-.00603.00151-.00827l.00343-.00571 .00603-.0047 .08752-.05664 .00388-.00201 .00612-.00128 .01-.00069 .0159-9.13533e-005 .01932.00041 .01119.00164 .00502.00288 .00119.00475v.33645h.06641l.00525.00169 .00407.00562 .00247.00987c.00055.00407.00087.00914.00087.01526zm.3386-.17371c0,.03257-.00256.06189-.00781.08811s-.01389.04855-.02572.06701-.02727.03266-.04627.04253-.04221.01475-.06975.01475-.05088-.00475-.06915-.0143-.03275-.02334-.04339-.04125-.01827-.03988-.02256-.06577-.00644-.05518-.00644-.08797 .00269-.06166.00804-.08797 .01398-.04865.02581-.06714 .02727-.03266.04627-.04253 .04211-.01471.06943-.01471 .05102.0047.06938.01425 .03284.02334.04348.04129 .01818.03983.02234.06573 .00635.05522.00635.08797zm-.08336.00407c0-.01932-.00055-.03631-.0016-.05111s-.00269-.02763-.00484-.03855l-.00827-.02773c-.00324-.00754-.00722-.01357-.01169-.01804l-.0158-.00968-.01955-.00279c-.01238,0-.02256.00301-.0306.00891l-.01923.02695c-.00475.01192-.00808.02686-.00991.04472s-.00288.03855-.00288.0623c0,.029.00119.05294.00352.07185s.00594.03417.01087.04536 .01128.01909.019.02361 .01708.00676.02805.00676l.0217-.00397 .01653-.01169 .01174-.01987 .00772-.02773c.00206-.01041.00333-.02234.00407-.03554s.00119-.02786.00119-.04376zm.39812.16964c0,.00589-.00032.01083-.00096.01494l-.00269.00977-.00397.00516-.00502.0016h-.22464l-.00475-.0016-.00397-.00516-.00265-.00977c-.00064-.00411-.00096-.00904-.00096-.01494s.00032-.01119.00082-.01526l.00247-.00987 .00397-.00562 .00507-.00169h.07582v-.26502l-.0655.03618-.01183.00429-.00722-.00192c-.00183-.00174-.00297-.00484-.00361-.00923s-.00087-.01064-.00087-.01859 9.13533e-005-.00914.00032-.01247 .00064-.00603.00151-.00827l.00343-.00571 .00603-.0047 .08752-.05664 .00388-.00201 .00612-.00128 .01-.00069 .0159-9.13533e-005 .01932.00041 .01119.00164 .00502.00288 .00119.00475v.33645h.06641l.00525.00169 .00407.00562 .00247.00987c.00055.00407.00087.00914.00087.01526zm.3386-.17371c0,.03257-.00256.06189-.00781.08811s-.01389.04855-.02572.06701-.02727.03266-.04627.04253-.04221.01475-.06975.01475-.05088-.00475-.06915-.0143-.03275-.02334-.04339-.04125-.01827-.03988-.02256-.06577-.00644-.05518-.00644-.08797 .00269-.06166.00804-.08797 .01398-.04865.02581-.06714 .02727-.03266.04627-.04253 .04211-.01471.06943-.01471 .05102.0047.06938.01425 .03284.02334.04348.04129 .01818.03983.02234.06573 .00635.05522.00635.08797zm-.08336.00407c0-.01932-.00055-.03631-.0016-.05111s-.00269-.02763-.00484-.03855l-.00827-.02773c-.00324-.00754-.00722-.01357-.01169-.01804l-.0158-.00968-.01955-.00279c-.01238,0-.02256.00301-.0306.00891l-.01923.02695c-.00475.01192-.00808.02686-.00991.04472s-.00288.03855-.00288.0623c0,.029.00119.05294.00352.07185s.00594.03417.01087.04536 .01128.01909.019.02361 .01708.00676.02805.00676l.0217-.00397 .01653-.01169 .01174-.01987 .00772-.02773c.00206-.01041.00333-.02234.00407-.03554s.00119-.02786.00119-.04376zm-.89668.468c0,.03257-.00256.06189-.00781.08811s-.01389.04855-.02572.06701-.02727.03266-.04627.04253-.04221.01475-.06975.01475-.05088-.00475-.06915-.0143-.03275-.02334-.04339-.04125-.01827-.03988-.02256-.06577-.00644-.05518-.00644-.08797 .00269-.06166.00804-.08797 .01398-.04865.02581-.06714 .02727-.03266.04627-.04253 .04211-.01471.06943-.01471 .05102.0047.06938.01425 .03284.02334.04348.04129 .01818.03983.02234.06573 .00635.05522.00635.08797zm-.08336.00407c0-.01932-.00055-.03631-.0016-.05111s-.00269-.02763-.00484-.03855l-.00827-.02773c-.00324-.00754-.00722-.01357-.01169-.01804l-.0158-.00968-.01955-.00279c-.01238,0-.02256.00301-.0306.00891l-.01923.02695c-.00475.01192-.00808.02686-.00991.04472s-.00288.03855-.00288.0623c0,.029.00119.05294.00352.07185s.00594.03417.01087.04536 .01128.01909.019.02361 .01708.00676.02805.00676l.0217-.00397 .01653-.01169 .01174-.01987 .00772-.02773c.00206-.01041.00333-.02234.00407-.03554s.00119-.02786.00119-.04376zm.39812.16964c0,.00589-.00032.01083-.00096.01494l-.00269.00977-.00397.00516-.00502.0016h-.22464l-.00475-.0016-.00397-.00516-.00265-.00977c-.00064-.00411-.00096-.00904-.00096-.01494s.00032-.01119.00082-.01526l.00247-.00987 .00397-.00562 .00507-.00169h.07582v-.26502l-.0655.03618-.01183.00429-.00722-.00192c-.00183-.00174-.00297-.00484-.00361-.00923s-.00087-.01064-.00087-.01859 9.13533e-005-.00914.00032-.01247 .00064-.00603.00151-.00827l.00343-.00571 .00603-.0047 .08752-.05664 .00388-.00201 .00612-.00128 .01-.00069 .0159-9.13533e-005 .01932.00041 .01119.00164 .00502.00288 .00119.00475v.33645h.06641l.00525.00169 .00407.00562 .00247.00987c.00055.00407.00087.00914.00087.01526zm.32668,0c0,.00589-.00032.01083-.00096.01494l-.00269.00977-.00397.00516-.00502.0016h-.22464l-.00475-.0016-.00397-.00516-.00265-.00977c-.00064-.00411-.00096-.00904-.00096-.01494s.00032-.01119.00082-.01526l.00247-.00987 .00397-.00562 .00507-.00169h.07582v-.26502l-.0655.03618-.01183.00429-.00722-.00192c-.00183-.00174-.00297-.00484-.00361-.00923s-.00087-.01064-.00087-.01859 9.13533e-005-.00914.00032-.01247 .00064-.00603.00151-.00827l.00343-.00571 .00603-.0047 .08752-.05664 .00388-.00201 .00612-.00128 .01-.00069 .0159-9.13533e-005 .01932.00041 .01119.00164 .00502.00288 .00119.00475v.33645h.06641l.00525.00169 .00407.00562 .00247.00987c.00055.00407.00087.00914.00087.01526zm.3386-.17371c0,.03257-.00256.06189-.00781.08811s-.01389.04855-.02572.06701-.02727.03266-.04627.04253-.04221.01475-.06975.01475-.05088-.00475-.06915-.0143-.03275-.02334-.04339-.04125-.01827-.03988-.02256-.06577-.00644-.05518-.00644-.08797 .00269-.06166.00804-.08797 .01398-.04865.02581-.06714 .02727-.03266.04627-.04253 .04211-.01471.06943-.01471 .05102.0047.06938.01425 .03284.02334.04348.04129 .01818.03983.02234.06573 .00635.05522.00635.08797zm-.08336.00407c0-.01932-.00055-.03631-.0016-.05111s-.00269-.02763-.00484-.03855l-.00827-.02773c-.00324-.00754-.00722-.01357-.01169-.01804l-.0158-.00968-.01955-.00279c-.01238,0-.02256.00301-.0306.00891l-.01923.02695c-.00475.01192-.00808.02686-.00991.04472s-.00288.03855-.00288.0623c0,.029.00119.05294.00352.07185s.00594.03417.01087.04536 .01128.01909.019.02361 .01708.00676.02805.00676l.0217-.00397 .01653-.01169 .01174-.01987 .00772-.02773c.00206-.01041.00333-.02234.00407-.03554s.00119-.02786.00119-.04376z" fill="#fff" fill-rule="nonzero"></path>
  
 </g>
</svg>
